<svg width="234" height="40" viewBox="0 0 234 40" fill="none" xmlns="http://www.w3.org/2000/svg">
<path d="M38.5767 12.5758C39.1551 14.0216 39.5695 15.5507 39.7971 17.1401C39.661 17.1587 39.5653 17.2838 39.5831 17.4202C39.6932 18.2644 39.75 19.1255 39.75 20C39.75 20.8745 39.6932 21.7356 39.5831 22.5798C39.5653 22.7162 39.661 22.8413 39.7971 22.8599C39.5695 24.4493 39.1551 25.9784 38.5767 27.4242C38.4495 27.3724 38.3041 27.4329 38.2515 27.56C37.5857 29.1655 36.7142 30.6642 35.6698 32.0233C35.5859 32.1324 35.606 32.2886 35.7144 32.373C34.736 33.6138 33.6139 34.736 32.373 35.7144C32.2886 35.606 32.1324 35.5859 32.0234 35.6698C30.6642 36.7142 29.1655 37.5857 27.56 38.2515C27.4329 38.3041 27.3724 38.4495 27.4242 38.5767C25.9784 39.1551 24.4493 39.5695 22.8599 39.7971C22.8413 39.661 22.7162 39.5653 22.5798 39.5831C21.7356 39.6932 20.8745 39.75 20 39.75C19.1255 39.75 18.2644 39.6932 17.4202 39.5831C17.2838 39.5653 17.1587 39.661 17.1401 39.7971C15.5507 39.5695 14.0216 39.1551 12.5758 38.5767C12.6276 38.4495 12.5671 38.3041 12.44 38.2515C10.8345 37.5857 9.33576 36.7142 7.97665 35.6698C7.86758 35.5859 7.7114 35.606 7.62704 35.7144C6.38615 34.7361 5.26395 33.6139 4.28557 32.373C4.39398 32.2886 4.41406 32.1324 4.33024 32.0234C3.28582 30.6642 2.41431 29.1655 1.74854 27.56C1.69585 27.4329 1.5505 27.3724 1.4233 27.4242C0.844949 25.9784 0.430503 24.4493 0.202931 22.8599C0.339021 22.8413 0.434737 22.7162 0.416946 22.5798C0.306821 21.7356 0.25 20.8745 0.25 20C0.25 19.1255 0.306821 18.2644 0.416945 17.4202C0.434737 17.2838 0.33902 17.1587 0.202931 17.1401C0.430502 15.5507 0.844948 14.0216 1.4233 12.5758C1.5505 12.6276 1.69585 12.5671 1.74854 12.44C2.41431 10.8345 3.28582 9.33576 4.33024 7.97665C4.41405 7.86758 4.39397 7.7114 4.28557 7.62704C5.26395 6.38615 6.38615 5.26395 7.62704 4.28557C7.7114 4.39398 7.86758 4.41406 7.97665 4.33024C9.33576 3.28582 10.8345 2.41431 12.44 1.74854C12.5671 1.69585 12.6276 1.5505 12.5758 1.4233C14.0216 0.844949 15.5507 0.430503 17.1401 0.202931C17.1587 0.339021 17.2838 0.434737 17.4202 0.416946C18.2644 0.306821 19.1255 0.25 20 0.25C20.8745 0.25 21.7356 0.306821 22.5798 0.416945C22.7162 0.434737 22.8413 0.33902 22.8599 0.202931C24.4493 0.430502 25.9784 0.844948 27.4242 1.4233C27.3724 1.5505 27.4329 1.69585 27.56 1.74854C29.1655 2.41431 30.6642 3.28582 32.0233 4.33024C32.1324 4.41405 32.2886 4.39397 32.373 4.28557C33.6138 5.26395 34.736 6.38615 35.7144 7.62704C35.606 7.7114 35.5859 7.86758 35.6698 7.97665C36.7142 9.33576 37.5857 10.8345 38.2515 12.44C38.3041 12.5671 38.4495 12.6276 38.5767 12.5758Z" stroke="#17FE84" stroke-width="0.5" stroke-linecap="round" stroke-linejoin="round" stroke-dasharray="5 5"/>
<path d="M28.2344 29H24.8828V17C24.8828 16.7656 24.8359 16.5469 24.7422 16.3438C24.6562 16.1406 24.5352 15.9648 24.3789 15.8164C24.2305 15.6602 24.0547 15.5391 23.8516 15.4531C23.6484 15.3672 23.4297 15.3242 23.1953 15.3242C22.9609 15.3242 22.7422 15.3672 22.5391 15.4531C22.3359 15.5391 22.1562 15.6602 22 15.8164C21.8516 15.9648 21.7344 16.1406 21.6484 16.3438C21.5625 16.5469 21.5195 16.7656 21.5195 17V29H18.1562V17C18.1562 16.7656 18.1133 16.5469 18.0273 16.3438C17.9414 16.1406 17.8203 15.9648 17.6641 15.8164C17.5156 15.6602 17.3398 15.5391 17.1367 15.4531C16.9336 15.3672 16.7148 15.3242 16.4805 15.3242C16.2461 15.3242 16.0273 15.3672 15.8242 15.4531C15.6211 15.5391 15.4414 15.6602 15.2852 15.8164C15.1367 15.9648 15.0195 16.1406 14.9336 16.3438C14.8477 16.5469 14.8047 16.7656 14.8047 17V29H11.4414V17C11.4414 16.3047 11.5703 15.6523 11.8281 15.043C12.0938 14.4258 12.4531 13.8906 12.9062 13.4375C13.3672 12.9766 13.9023 12.6172 14.5117 12.3594C15.1289 12.0938 15.7852 11.9609 16.4805 11.9609C17.1055 11.9609 17.707 12.0742 18.2852 12.3008C18.8633 12.5195 19.3828 12.8398 19.8438 13.2617C20.3047 12.8398 20.8203 12.5195 21.3906 12.3008C21.9688 12.0742 22.5703 11.9609 23.1953 11.9609C23.8906 11.9609 24.543 12.0938 25.1523 12.3594C25.7695 12.6172 26.3047 12.9766 26.7578 13.4375C27.2188 13.8906 27.5781 14.4258 27.8359 15.043C28.1016 15.6523 28.2344 16.3047 28.2344 17V29ZM42.7656 29H31.2461V12.1953H42.7656V15.5586H34.6094V18.9219H40.1289V22.2852H34.6094V25.6367H42.7656V29ZM48.4844 15.5586V22.2852H51.8477C52.3086 22.2852 52.7422 22.1992 53.1484 22.0273C53.5547 21.8477 53.9102 21.6055 54.2148 21.3008C54.5195 20.9961 54.7578 20.6406 54.9297 20.2344C55.1094 19.8203 55.1992 19.3828 55.1992 18.9219C55.1992 18.4609 55.1094 18.0273 54.9297 17.6211C54.7578 17.207 54.5195 16.8477 54.2148 16.543C53.9102 16.2383 53.5547 16 53.1484 15.8281C52.7422 15.6484 52.3086 15.5586 51.8477 15.5586H48.4844ZM48.4844 29H45.1211V12.1953H51.8477C52.4648 12.1953 53.0586 12.2773 53.6289 12.4414C54.1992 12.5977 54.7305 12.8242 55.2227 13.1211C55.7227 13.4102 56.1758 13.7617 56.582 14.1758C56.9961 14.582 57.3477 15.0352 57.6367 15.5352C57.9336 16.0352 58.1602 16.5703 58.3164 17.1406C58.4805 17.7109 58.5625 18.3047 58.5625 18.9219C58.5625 19.5 58.4883 20.0625 58.3398 20.6094C58.1992 21.1562 57.9922 21.6758 57.7188 22.168C57.4531 22.6602 57.125 23.1133 56.7344 23.5273C56.3438 23.9414 55.9062 24.3008 55.4219 24.6055L57.2852 29H53.7109L52.2461 25.6133L48.4844 25.6367V29ZM77.4531 29H74.1016V17C74.1016 16.7656 74.0547 16.5469 73.9609 16.3438C73.875 16.1406 73.7539 15.9648 73.5977 15.8164C73.4492 15.6602 73.2734 15.5391 73.0703 15.4531C72.8672 15.3672 72.6484 15.3242 72.4141 15.3242C72.1797 15.3242 71.9609 15.3672 71.7578 15.4531C71.5547 15.5391 71.375 15.6602 71.2188 15.8164C71.0703 15.9648 70.9531 16.1406 70.8672 16.3438C70.7812 16.5469 70.7383 16.7656 70.7383 17V29H67.375V17C67.375 16.7656 67.332 16.5469 67.2461 16.3438C67.1602 16.1406 67.0391 15.9648 66.8828 15.8164C66.7344 15.6602 66.5586 15.5391 66.3555 15.4531C66.1523 15.3672 65.9336 15.3242 65.6992 15.3242C65.4648 15.3242 65.2461 15.3672 65.043 15.4531C64.8398 15.5391 64.6602 15.6602 64.5039 15.8164C64.3555 15.9648 64.2383 16.1406 64.1523 16.3438C64.0664 16.5469 64.0234 16.7656 64.0234 17V29H60.6602V17C60.6602 16.3047 60.7891 15.6523 61.0469 15.043C61.3125 14.4258 61.6719 13.8906 62.125 13.4375C62.5859 12.9766 63.1211 12.6172 63.7305 12.3594C64.3477 12.0938 65.0039 11.9609 65.6992 11.9609C66.3242 11.9609 66.9258 12.0742 67.5039 12.3008C68.082 12.5195 68.6016 12.8398 69.0625 13.2617C69.5234 12.8398 70.0391 12.5195 70.6094 12.3008C71.1875 12.0742 71.7891 11.9609 72.4141 11.9609C73.1094 11.9609 73.7617 12.0938 74.3711 12.3594C74.9883 12.6172 75.5234 12.9766 75.9766 13.4375C76.4375 13.8906 76.7969 14.4258 77.0547 15.043C77.3203 15.6523 77.4531 16.3047 77.4531 17V29ZM90.3555 22.2852V18.9219C90.3555 18.4609 90.2656 18.0273 90.0859 17.6211C89.9141 17.207 89.6758 16.8477 89.3711 16.543C89.0664 16.2383 88.707 16 88.293 15.8281C87.8867 15.6484 87.4531 15.5586 86.9922 15.5586C86.5312 15.5586 86.0938 15.6484 85.6797 15.8281C85.2734 16 84.918 16.2383 84.6133 16.543C84.3086 16.8477 84.0664 17.207 83.8867 17.6211C83.7148 18.0273 83.6289 18.4609 83.6289 18.9219V22.2852H90.3555ZM93.7188 29H90.3555V25.6367H83.6289V29H80.2773V18.9219C80.2773 17.9922 80.4531 17.1211 80.8047 16.3086C81.1562 15.4883 81.6328 14.7734 82.2344 14.1641C82.8438 13.5547 83.5547 13.0742 84.3672 12.7227C85.1875 12.3711 86.0625 12.1953 86.9922 12.1953C87.9219 12.1953 88.793 12.3711 89.6055 12.7227C90.4258 13.0742 91.1406 13.5547 91.75 14.1641C92.3594 14.7734 92.8398 15.4883 93.1914 16.3086C93.543 17.1211 93.7188 17.9922 93.7188 18.9219V29ZM100 29H96.6367V12.1953H100V29ZM116.594 20.5977C116.594 21.3711 116.492 22.1172 116.289 22.8359C116.094 23.5469 115.812 24.2148 115.445 24.8398C115.078 25.457 114.641 26.0234 114.133 26.5391C113.625 27.0469 113.059 27.4844 112.434 27.8516C111.809 28.2188 111.137 28.5039 110.418 28.707C109.707 28.9023 108.965 29 108.191 29H103.129V12.1953H108.191C108.965 12.1953 109.707 12.2969 110.418 12.5C111.137 12.6953 111.809 12.9766 112.434 13.3438C113.059 13.7109 113.625 14.1523 114.133 14.668C114.641 15.1758 115.078 15.7422 115.445 16.3672C115.812 16.9844 116.094 17.6523 116.289 18.3711C116.492 19.082 116.594 19.8242 116.594 20.5977ZM113.23 20.5977C113.23 19.9023 113.098 19.25 112.832 18.6406C112.574 18.0312 112.215 17.5 111.754 17.0469C111.301 16.5859 110.766 16.2227 110.148 15.957C109.539 15.6914 108.887 15.5586 108.191 15.5586H106.516V25.6367H108.191C108.887 25.6367 109.539 25.5078 110.148 25.25C110.766 24.9844 111.301 24.625 111.754 24.1719C112.215 23.7109 112.574 23.1758 112.832 22.5664C113.098 21.9492 113.23 21.293 113.23 20.5977ZM122.172 14.1641C122.172 14.5078 122.137 14.8789 122.066 15.2773C122.004 15.668 121.898 16.0586 121.75 16.4492C121.609 16.832 121.422 17.1992 121.188 17.5508C120.953 17.9023 120.672 18.1992 120.344 18.4414L119.078 17.5508C119.289 17.3008 119.449 17.0625 119.559 16.8359C119.668 16.6094 119.754 16.3828 119.816 16.1562C119.582 16.1172 119.363 16.0391 119.16 15.9219C118.957 15.8047 118.781 15.6602 118.633 15.4883C118.492 15.3086 118.379 15.1055 118.293 14.8789C118.207 14.6523 118.164 14.4141 118.164 14.1641C118.164 13.8984 118.215 13.6445 118.316 13.4023C118.426 13.1602 118.57 12.9492 118.75 12.7695C118.938 12.582 119.148 12.4375 119.383 12.3359C119.625 12.2266 119.883 12.1719 120.156 12.1719C120.438 12.1719 120.699 12.2266 120.941 12.3359C121.191 12.4375 121.406 12.582 121.586 12.7695C121.766 12.9492 121.906 13.1602 122.008 13.4023C122.117 13.6445 122.172 13.8984 122.172 14.1641ZM123.73 17.2344C123.73 16.5391 123.863 15.8867 124.129 15.2773C124.395 14.668 124.754 14.1367 125.207 13.6836C125.668 13.2227 126.203 12.8594 126.812 12.5938C127.422 12.3281 128.074 12.1953 128.77 12.1953H136.48V15.5586H128.77C128.535 15.5586 128.316 15.6016 128.113 15.6875C127.91 15.7734 127.73 15.8945 127.574 16.0508C127.426 16.1992 127.309 16.375 127.223 16.5781C127.137 16.7812 127.094 17 127.094 17.2344C127.094 17.4688 127.137 17.6914 127.223 17.9023C127.309 18.1055 127.426 18.2852 127.574 18.4414C127.73 18.5898 127.91 18.707 128.113 18.793C128.316 18.8789 128.535 18.9219 128.77 18.9219H132.133C132.828 18.9219 133.48 19.0547 134.09 19.3203C134.707 19.5781 135.242 19.9375 135.695 20.3984C136.156 20.8516 136.516 21.3867 136.773 22.0039C137.039 22.6133 137.172 23.2656 137.172 23.9609C137.172 24.6562 137.039 25.3086 136.773 25.918C136.516 26.5273 136.156 27.0625 135.695 27.5234C135.242 27.9766 134.707 28.3359 134.09 28.6016C133.48 28.8672 132.828 29 132.133 29H124.668V25.6367H132.133C132.367 25.6367 132.586 25.5938 132.789 25.5078C132.992 25.4219 133.168 25.3047 133.316 25.1562C133.473 25 133.594 24.8203 133.68 24.6172C133.766 24.4141 133.809 24.1953 133.809 23.9609C133.809 23.7266 133.766 23.5078 133.68 23.3047C133.594 23.1016 133.473 22.9258 133.316 22.7773C133.168 22.6211 132.992 22.5 132.789 22.4141C132.586 22.3281 132.367 22.2852 132.133 22.2852H128.77C128.074 22.2852 127.422 22.1523 126.812 21.8867C126.203 21.6211 125.668 21.2617 125.207 20.8086C124.754 20.3477 124.395 19.8125 124.129 19.2031C123.863 18.5859 123.73 17.9297 123.73 17.2344ZM159.578 20.5977C159.578 21.3711 159.477 22.1172 159.273 22.8359C159.078 23.5469 158.797 24.2148 158.43 24.8398C158.062 25.457 157.625 26.0234 157.117 26.5391C156.609 27.0469 156.043 27.4844 155.418 27.8516C154.793 28.2188 154.121 28.5039 153.402 28.707C152.691 28.9023 151.949 29 151.176 29H146.113V12.1953H151.176C151.949 12.1953 152.691 12.2969 153.402 12.5C154.121 12.6953 154.793 12.9766 155.418 13.3438C156.043 13.7109 156.609 14.1523 157.117 14.668C157.625 15.1758 158.062 15.7422 158.43 16.3672C158.797 16.9844 159.078 17.6523 159.273 18.3711C159.477 19.082 159.578 19.8242 159.578 20.5977ZM156.215 20.5977C156.215 19.9023 156.082 19.25 155.816 18.6406C155.559 18.0312 155.199 17.5 154.738 17.0469C154.285 16.5859 153.75 16.2227 153.133 15.957C152.523 15.6914 151.871 15.5586 151.176 15.5586H149.5V25.6367H151.176C151.871 25.6367 152.523 25.5078 153.133 25.25C153.75 24.9844 154.285 24.625 154.738 24.1719C155.199 23.7109 155.559 23.1758 155.816 22.5664C156.082 21.9492 156.215 21.293 156.215 20.5977ZM165.18 15.5586V22.2852H168.543C169.004 22.2852 169.438 22.1992 169.844 22.0273C170.25 21.8477 170.605 21.6055 170.91 21.3008C171.215 20.9961 171.453 20.6406 171.625 20.2344C171.805 19.8203 171.895 19.3828 171.895 18.9219C171.895 18.4609 171.805 18.0273 171.625 17.6211C171.453 17.207 171.215 16.8477 170.91 16.543C170.605 16.2383 170.25 16 169.844 15.8281C169.438 15.6484 169.004 15.5586 168.543 15.5586H165.18ZM165.18 29H161.816V12.1953H168.543C169.16 12.1953 169.754 12.2773 170.324 12.4414C170.895 12.5977 171.426 12.8242 171.918 13.1211C172.418 13.4102 172.871 13.7617 173.277 14.1758C173.691 14.582 174.043 15.0352 174.332 15.5352C174.629 16.0352 174.855 16.5703 175.012 17.1406C175.176 17.7109 175.258 18.3047 175.258 18.9219C175.258 19.5 175.184 20.0625 175.035 20.6094C174.895 21.1562 174.688 21.6758 174.414 22.168C174.148 22.6602 173.82 23.1133 173.43 23.5273C173.039 23.9414 172.602 24.3008 172.117 24.6055L173.98 29H170.406L168.941 25.6133L165.18 25.6367V29ZM180.836 29H177.473V12.1953H180.836V29ZM197.406 29H193.809L187.328 17.9375V29H183.965V12.1953H187.562L194.043 23.2695V12.1953H197.406V29ZM203.898 29H200.535V12.1953H203.898V20.5977L210.156 12.1953H213.977L208.668 19.2852L213.977 29H210.156L206.465 22.2031L203.898 25.6367V29Z" fill="#313940"/>
<path d="M214.574 17.2344C214.574 16.5391 214.707 15.8867 214.973 15.2773C215.238 14.668 215.598 14.1367 216.051 13.6836C216.512 13.2227 217.047 12.8594 217.656 12.5938C218.266 12.3281 218.918 12.1953 219.613 12.1953H227.324V15.5586H219.613C219.379 15.5586 219.16 15.6016 218.957 15.6875C218.754 15.7734 218.574 15.8945 218.418 16.0508C218.27 16.1992 218.152 16.375 218.066 16.5781C217.98 16.7812 217.938 17 217.938 17.2344C217.938 17.4688 217.98 17.6914 218.066 17.9023C218.152 18.1055 218.27 18.2852 218.418 18.4414C218.574 18.5898 218.754 18.707 218.957 18.793C219.16 18.8789 219.379 18.9219 219.613 18.9219H222.977C223.672 18.9219 224.324 19.0547 224.934 19.3203C225.551 19.5781 226.086 19.9375 226.539 20.3984C227 20.8516 227.359 21.3867 227.617 22.0039C227.883 22.6133 228.016 23.2656 228.016 23.9609C228.016 24.6562 227.883 25.3086 227.617 25.918C227.359 26.5273 227 27.0625 226.539 27.5234C226.086 27.9766 225.551 28.3359 224.934 28.6016C224.324 28.8672 223.672 29 222.977 29H215.512H146C146 29 221 27 222 26.5C223 26 223.43 25.7763 223.633 25.6904C223.836 25.6044 224.012 25.3047 224.16 25.1562C224.316 25 224.438 24.8203 224.523 24.6172C224.609 24.4141 224.652 24.1953 224.652 23.9609C224.652 23.7266 224.609 23.5078 224.523 23.3047C224.438 23.1016 224.316 22.9258 224.16 22.7773C224.012 22.6211 223.836 22.5 223.633 22.4141C223.43 22.3281 223.211 22.2852 222.977 22.2852H219.613C218.918 22.2852 218.266 22.1523 217.656 21.8867C217.047 21.6211 216.512 21.2617 216.051 20.8086C215.598 20.3477 215.238 19.8125 214.973 19.2031C214.707 18.5859 214.574 17.9297 214.574 17.2344Z" fill="#313940"/>
<path d="M100.792 8.19214C100.792 9.57285 99.6722 10.6921 98.2915 10.6921C96.9108 10.6921 95.7915 9.57285 95.7915 8.19214C95.7915 6.81143 96.9108 5.69214 98.2915 5.69214C99.6722 5.69214 100.792 6.81143 100.792 8.19214Z" fill="#17FE84"/>
<path d="M234 26.5C234 27.8807 232.881 29 231.5 29C230.119 29 229 27.8807 229 26.5C229 25.1193 230.119 24 231.5 24C232.881 24 234 25.1193 234 26.5Z" fill="#17FE84"/>
</svg>
